<svg width="28" height="26" viewBox="0 0 28 26" fill="none" xmlns="http://www.w3.org/2000/svg">
<path fill-rule="evenodd" clip-rule="evenodd" d="M21.3622 3.08366L26.2695 11.5837C26.7752 12.4606 26.7752 13.5401 26.2695 14.417L21.3622 22.917C20.8564 23.7939 19.92 24.3337 18.9085 24.3337H9.09383C8.08091 24.3337 7.14591 23.7939 6.64016 22.917L1.73283 14.417C1.22708 13.5401 1.22708 12.4606 1.73283 11.5837L6.64016 3.08366C7.14591 2.20674 8.08233 1.66699 9.09383 1.66699H18.9099C19.9214 1.66699 20.8564 2.20674 21.3622 3.08366Z" stroke="#3F3535" stroke-width="2" stroke-linecap="round" stroke-linejoin="round"/>
<path d="M17.967 9.03432C20.1573 11.2246 20.1573 14.7758 17.967 16.9661C15.7767 19.1563 12.2256 19.1563 10.0353 16.9661C7.845 14.7758 7.845 11.2246 10.0353 9.03432C12.2256 6.84403 15.7768 6.84403 17.967 9.03432" stroke="#3F3535" stroke-width="2" stroke-linecap="round" stroke-linejoin="round"/>
</svg>
