<svg width="35" height="34" viewBox="0 0 35 34" fill="none" xmlns="http://www.w3.org/2000/svg">
<path d="M29.9588 13.4908C31.078 14.61 31.078 16.4246 29.9588 17.5438C28.8396 18.663 27.025 18.663 25.9058 17.5438C24.7866 16.4246 24.7866 14.61 25.9058 13.4908C27.025 12.3716 28.8396 12.3716 29.9588 13.4908" stroke="#3F3535" stroke-width="2" stroke-linecap="round" stroke-linejoin="round"/>
<path d="M20.6212 8.37552C22.3446 10.0989 22.3446 12.893 20.6212 14.6163C18.8979 16.3397 16.1038 16.3397 14.3804 14.6163C12.6571 12.893 12.6571 10.0989 14.3804 8.37552C16.1037 6.65217 18.8979 6.65217 20.6212 8.37552" stroke="#3F3535" stroke-width="2" stroke-linecap="round" stroke-linejoin="round"/>
<path d="M9.09945 13.4908C10.2187 14.61 10.2187 16.4246 9.09945 17.5438C7.98024 18.663 6.16565 18.663 5.04644 17.5438C3.92723 16.4246 3.92723 14.61 5.04644 13.4908C6.16565 12.3716 7.98024 12.3716 9.09945 13.4908" stroke="#3F3535" stroke-width="2" stroke-linecap="round" stroke-linejoin="round"/>
<path d="M33.0846 26.9166V25.3639C33.0846 23.4075 31.4994 21.8223 29.543 21.8223H28.4082" stroke="#3F3535" stroke-width="2" stroke-linecap="round" stroke-linejoin="round"/>
<path d="M1.91797 26.9156V25.363C1.91797 23.4065 3.50322 21.8213 5.45964 21.8213H6.59439" stroke="#3F3535" stroke-width="2" stroke-linecap="round" stroke-linejoin="round"/>
<path d="M25.0661 26.9159V24.6478C25.0661 21.9094 22.8462 19.6895 20.1077 19.6895H14.8958C12.1574 19.6895 9.9375 21.9094 9.9375 24.6478V26.9159" stroke="#3F3535" stroke-width="2" stroke-linecap="round" stroke-linejoin="round"/>
</svg>
