<svg width="25" height="25" viewBox="0 0 25 25" fill="none" xmlns="http://www.w3.org/2000/svg">
<path d="M16.6839 17.7562L16.3999 17.0432C16.2559 16.6822 16.0329 16.3572 15.7479 16.0932V16.0932C15.2649 15.6452 14.6299 15.3972 13.9719 15.3972H10.0479C9.38894 15.3972 8.75494 15.6462 8.27194 16.0932V16.0932C7.98694 16.3572 7.76394 16.6822 7.61994 17.0432L7.33594 17.7562" stroke="#323232" stroke-width="1.5" stroke-linecap="round" stroke-linejoin="round"/>
<path d="M13.9543 8.56168C15.0283 9.63562 15.0283 11.3768 13.9543 12.4508C12.8804 13.5247 11.1392 13.5247 10.0652 12.4508C8.99128 11.3768 8.99128 9.63562 10.0652 8.56168C11.1392 7.48774 12.8804 7.48774 13.9543 8.56168" stroke="#323232" stroke-width="1.5" stroke-linecap="round" stroke-linejoin="round"/>
<path d="M7.59777 3.75623H5.00977C3.90477 3.75623 3.00977 4.65123 3.00977 5.75623V8.34423" stroke="#323232" stroke-width="1.5" stroke-linecap="round" stroke-linejoin="round"/>
<path d="M16.4219 21.7562H19.0099C20.1149 21.7562 21.0099 20.8612 21.0099 19.7562V17.1682" stroke="#323232" stroke-width="1.5" stroke-linecap="round" stroke-linejoin="round"/>
<path d="M3.00977 17.1682V19.7562C3.00977 20.8612 3.90477 21.7562 5.00977 21.7562H7.59777" stroke="#323232" stroke-width="1.5" stroke-linecap="round" stroke-linejoin="round"/>
<path d="M21.0099 8.34423V5.75623C21.0099 4.65123 20.1149 3.75623 19.0099 3.75623H16.4219" stroke="#323232" stroke-width="1.5" stroke-linecap="round" stroke-linejoin="round"/>
</svg>
