<svg width="24" height="25" viewBox="0 0 24 25" fill="none" xmlns="http://www.w3.org/2000/svg">
<rect x="5" y="10.7562" width="14" height="11" rx="3" stroke="#3F3535" stroke-width="1.5" stroke-linecap="round" stroke-linejoin="round"/>
<path d="M8 10.7562V7.75623V7.75623C8 5.54709 9.79086 3.75623 12 3.75623V3.75623C14.2091 3.75623 16 5.54709 16 7.75623V7.75623V10.7562" stroke="#3F3535" stroke-width="1.5" stroke-linecap="round" stroke-linejoin="round"/>
<path d="M9.03558 15.7211C9.04988 15.7354 9.05416 15.7569 9.04642 15.7756C9.03868 15.7943 9.02044 15.8064 9.00021 15.8064C8.97998 15.8064 8.96174 15.7943 8.954 15.7756C8.94625 15.7569 8.95053 15.7354 8.96484 15.7211V15.7211C8.98437 15.7016 9.016 15.7016 9.03553 15.7211" stroke="#3F3535" stroke-width="1.5" stroke-linecap="round" stroke-linejoin="round"/>
<path d="M12.0356 15.7211C12.0499 15.7354 12.0542 15.7569 12.0464 15.7756C12.0387 15.7943 12.0204 15.8064 12.0002 15.8064C11.98 15.8064 11.9617 15.7943 11.954 15.7756C11.9463 15.7569 11.9505 15.7354 11.9648 15.7211V15.7211C11.9844 15.7016 12.016 15.7016 12.0355 15.7211" stroke="#3F3535" stroke-width="1.5" stroke-linecap="round" stroke-linejoin="round"/>
<path d="M15.0004 17.7564H14" stroke="#3F3535" stroke-width="1.5" stroke-linecap="round" stroke-linejoin="round"/>
</svg>
