<svg width="24" height="24" viewBox="0 0 24 24" fill="none" xmlns="http://www.w3.org/2000/svg">
<rect x="5" y="10" width="14" height="11" rx="3" stroke="#838383" stroke-width="1.5" stroke-linecap="round" stroke-linejoin="round"/>
<path d="M8 10V7V7C8 4.79086 9.79086 3 12 3V3C14.2091 3 16 4.79086 16 7V7V10" stroke="#838383" stroke-width="1.5" stroke-linecap="round" stroke-linejoin="round"/>
<path d="M9.03558 14.9648C9.04988 14.9791 9.05416 15.0006 9.04642 15.0193C9.03868 15.038 9.02044 15.0502 9.00021 15.0502C8.97998 15.0502 8.96174 15.038 8.954 15.0193C8.94625 15.0006 8.95053 14.9791 8.96484 14.9648V14.9648C8.98437 14.9453 9.016 14.9453 9.03553 14.9648" stroke="#838383" stroke-width="1.5" stroke-linecap="round" stroke-linejoin="round"/>
<path d="M12.0356 14.9648C12.0499 14.9791 12.0542 15.0006 12.0464 15.0193C12.0387 15.038 12.0204 15.0502 12.0002 15.0502C11.98 15.0502 11.9617 15.038 11.954 15.0193C11.9463 15.0006 11.9505 14.9791 11.9648 14.9648V14.9648C11.9844 14.9453 12.016 14.9453 12.0355 14.9648" stroke="#838383" stroke-width="1.5" stroke-linecap="round" stroke-linejoin="round"/>
<path d="M15.0004 17.0002H14" stroke="#838383" stroke-width="1.5" stroke-linecap="round" stroke-linejoin="round"/>
</svg>
