<svg width="58" height="58" viewBox="0 0 58 58" fill="none" xmlns="http://www.w3.org/2000/svg">
<path d="M0 16C0 7.16345 7.16344 0 16 0H42C50.8366 0 58 7.16344 58 16V42C58 50.8366 50.8366 58 42 58H16C7.16345 58 0 50.8366 0 42V16Z" fill="#F0FBF1"/>
<path fill-rule="evenodd" clip-rule="evenodd" d="M36 23.94H29.529C29.198 23.94 28.888 23.776 28.702 23.502L27.297 21.437C27.111 21.164 26.802 21 26.471 21H22C20.895 21 20 21.895 20 23V35C20 36.105 20.895 37 22 37H36C37.105 37 38 36.105 38 35V25.94C38 24.836 37.105 23.94 36 23.94Z" fill="#65DA74" stroke="#65DA74" stroke-width="1.5" stroke-linecap="round" stroke-linejoin="round"/>
<path d="M26.2402 30.37H31.7402" stroke="#FBF9F8" stroke-width="1.5" stroke-linecap="round" stroke-linejoin="round"/>
</svg>
