<svg width="118" height="118" viewBox="0 0 118 118" fill="none" xmlns="http://www.w3.org/2000/svg">
<path d="M0 16C0 7.16345 7.16344 0 16 0H102C110.837 0 118 7.16344 118 16V102C118 110.837 110.837 118 102 118H16C7.16345 118 0 110.837 0 102V16Z" fill="#FBF5F0"/>
<path fill-rule="evenodd" clip-rule="evenodd" d="M76.1037 44.104L68.5623 36.5627C67.5623 35.5627 66.205 35 64.7917 35H45.6663C42.7197 35 40.333 37.3867 40.333 40.3333V77.6667C40.333 80.6133 42.7197 83 45.6663 83H72.333C75.2797 83 77.6663 80.6133 77.6663 77.6667V47.8747C77.6663 46.4613 77.1037 45.104 76.1037 44.104V44.104Z" stroke="#D7976D" stroke-width="2.5" stroke-linecap="round" stroke-linejoin="round"/>
<path d="M77.6663 48.3333H66.9997C65.5277 48.3333 64.333 47.1387 64.333 45.6667V35" stroke="#D7976D" stroke-width="2.5" stroke-linecap="round" stroke-linejoin="round"/>
</svg>
