<svg width="24" height="24" viewBox="0 0 24 24" fill="none" xmlns="http://www.w3.org/2000/svg">
<path d="M6.25 20.0001C6.25 20.4143 6.58579 20.7501 7 20.7501C7.41421 20.7501 7.75 20.4143 7.75 20.0001H6.25ZM20.15 20.0001C20.15 20.4143 20.4858 20.7501 20.9 20.7501C21.3142 20.7501 21.65 20.4143 21.65 20.0001H20.15ZM7.75 20.0001C7.75 17.9254 9.40303 16.3501 11.4 16.3501V14.8501C8.59697 14.8501 6.25 17.0748 6.25 20.0001H7.75ZM11.4 16.3501H16.5V14.8501H11.4V16.3501ZM16.5 16.3501C18.5747 16.3501 20.15 18.0031 20.15 20.0001H21.65C21.65 17.1971 19.4253 14.8501 16.5 14.8501V16.3501Z" fill="#838383"/>
<path d="M17.0004 5.2C18.6004 6.8 18.6004 9.5 17.0004 11.1C15.4004 12.7 12.7004 12.7 11.1004 11.1C9.50039 9.5 9.50039 6.8 11.1004 5.2C12.7004 3.6 15.3004 3.6 17.0004 5.2" stroke="#838383" stroke-width="1.5" stroke-linecap="round" stroke-linejoin="round"/>
<path d="M2.5 12H6.5" stroke="#838383" stroke-width="1.5" stroke-linecap="round" stroke-linejoin="round"/>
<path d="M4.5 14V10" stroke="#838383" stroke-width="1.5" stroke-linecap="round" stroke-linejoin="round"/>
</svg>
