<svg width="14" height="15" viewBox="0 0 14 15" fill="none" xmlns="http://www.w3.org/2000/svg">
<path d="M12.1302 6.05487C12.5911 6.51572 12.5911 7.2629 12.1302 7.72375C11.6694 8.18461 10.9222 8.18461 10.4614 7.72375C10.0005 7.2629 10.0005 6.51572 10.4614 6.05487C10.9222 5.59402 11.6694 5.59402 12.1302 6.05487" stroke="#3F3535" stroke-linecap="round" stroke-linejoin="round"/>
<path d="M8.28555 3.94859C8.99516 4.65821 8.99516 5.80872 8.28555 6.51834C7.57594 7.22795 6.42542 7.22795 5.7158 6.51834C5.00619 5.80872 5.00619 4.65821 5.7158 3.94859C6.42542 3.23898 7.57593 3.23898 8.28555 3.94859" stroke="#3F3535" stroke-linecap="round" stroke-linejoin="round"/>
<path d="M3.54089 6.05487C4.00174 6.51572 4.00174 7.2629 3.54089 7.72375C3.08004 8.18461 2.33286 8.18461 1.87201 7.72375C1.41115 7.2629 1.41115 6.51572 1.87201 6.05487C2.33286 5.59402 3.08004 5.59402 3.54089 6.05487" stroke="#3F3535" stroke-linecap="round" stroke-linejoin="round"/>
<path d="M13.4173 11.5833V10.9439C13.4173 10.1383 12.7645 9.4856 11.9589 9.4856H11.4917" stroke="#3F3535" stroke-linecap="round" stroke-linejoin="round"/>
<path d="M0.583984 11.5829V10.9436C0.583984 10.138 1.23673 9.48523 2.04232 9.48523H2.50957" stroke="#3F3535" stroke-linecap="round" stroke-linejoin="round"/>
<path d="M10.1156 11.583V10.6491C10.1156 9.52151 9.20156 8.60742 8.07398 8.60742H5.9279C4.80031 8.60742 3.88623 9.52151 3.88623 10.6491V11.583" stroke="#3F3535" stroke-linecap="round" stroke-linejoin="round"/>
</svg>
