<svg width="20" height="20" viewBox="0 0 20 20" fill="none" xmlns="http://www.w3.org/2000/svg">
<path fill-rule="evenodd" clip-rule="evenodd" d="M14 19H6C3.239 19 1 16.761 1 14V6C1 3.239 3.239 1 6 1H14C16.761 1 19 3.239 19 6V14C19 16.761 16.761 19 14 19Z" stroke="#3F3535" stroke-width="1.5" stroke-linecap="round" stroke-linejoin="round"/>
<path d="M9.99921 6.0001C9.86115 6.0001 9.74911 6.11215 9.75011 6.25021C9.75011 6.38827 9.86215 6.50031 10.0002 6.50031C10.1383 6.50031 10.2503 6.38827 10.2503 6.25021C10.2503 6.11215 10.1383 6.0001 9.99921 6.0001" stroke="#3F3535" stroke-width="1.5" stroke-linecap="round" stroke-linejoin="round"/>
<path d="M10.25 14.184V9.43396H9.25" stroke="#3F3535" stroke-width="1.5" stroke-linecap="round" stroke-linejoin="round"/>
</svg>
