<svg width="21" height="20" viewBox="0 0 21 20" fill="none" xmlns="http://www.w3.org/2000/svg">
<path fill-rule="evenodd" clip-rule="evenodd" d="M19.5 10V10C19.5 14.971 15.471 19 10.5 19V19C5.529 19 1.5 14.971 1.5 10V10C1.5 5.029 5.529 1 10.5 1V1C15.471 1 19.5 5.029 19.5 10Z" stroke="#3F3535" stroke-width="1.5" stroke-linecap="round" stroke-linejoin="round"/>
<path d="M10.125 10.001C10.125 10.208 10.293 10.376 10.5 10.374C10.707 10.374 10.875 10.206 10.875 9.99901C10.875 9.79201 10.707 9.62401 10.5 9.62401C10.293 9.62501 10.125 9.79301 10.125 10.001" stroke="#3F3535" stroke-width="1.5" stroke-linecap="round" stroke-linejoin="round"/>
<path d="M10.125 6.00101C10.125 6.20801 10.293 6.37601 10.5 6.37401C10.707 6.37401 10.875 6.20601 10.875 5.99901C10.875 5.79201 10.707 5.62401 10.5 5.62401C10.293 5.62501 10.125 5.79301 10.125 6.00101" stroke="#3F3535" stroke-width="1.5" stroke-linecap="round" stroke-linejoin="round"/>
<path d="M10.125 14.001C10.125 14.208 10.293 14.376 10.5 14.374C10.707 14.374 10.875 14.206 10.875 13.999C10.875 13.792 10.707 13.624 10.5 13.624C10.293 13.625 10.125 13.793 10.125 14.001" stroke="#3F3535" stroke-width="1.5" stroke-linecap="round" stroke-linejoin="round"/>
</svg>
