<svg width="24" height="24" viewBox="0 0 24 24" fill="none" xmlns="http://www.w3.org/2000/svg">
<path d="M21 12V16C21 18.7614 18.7614 21 16 21H8C5.23858 21 3 18.7614 3 16V8C3 5.23858 5.23858 3 8 3H12" stroke="#3F3535" stroke-width="1.5" stroke-linecap="round" stroke-linejoin="round"/>
<path fill-rule="evenodd" clip-rule="evenodd" d="M17.3794 3.62026C17.7773 3.22264 18.317 2.9995 18.8795 3C19.442 3.0005 19.9813 3.22461 20.3785 3.62294V3.62294C20.7763 4.02072 20.9998 4.56031 20.9998 5.12293C20.9998 5.68555 20.7761 6.22508 20.3781 6.62275C20.3774 6.62211 16.202 10.7974 14.7581 12.2412C14.4435 12.5558 14.0327 12.7559 13.5911 12.8098L12.1133 12.9923C11.8068 13.0302 11.5002 12.9231 11.2839 12.7027C11.0676 12.4822 10.9663 12.1736 11.01 11.8679L11.2286 10.3369C11.2881 9.91039 11.485 9.5149 11.7894 9.21028C12.8 8.19932 15.2694 5.72979 17.3794 3.62026Z" stroke="#3F3535" stroke-width="1.5" stroke-linecap="round" stroke-linejoin="round"/>
</svg>
