<svg width="25" height="16" viewBox="0 0 25 16" fill="none" xmlns="http://www.w3.org/2000/svg">
<path d="M21.2943 5.5227C22.0843 6.31273 22.0843 7.59362 21.2943 8.38365C20.5043 9.17368 19.2234 9.17368 18.4333 8.38365C17.6433 7.59362 17.6433 6.31273 18.4333 5.5227C19.2234 4.73267 20.5043 4.73267 21.2943 5.5227" stroke="#3F3535" stroke-width="1.5" stroke-linecap="round" stroke-linejoin="round"/>
<path d="M14.7034 1.91187C15.9199 3.12835 15.9199 5.10066 14.7034 6.31715C13.4869 7.53363 11.5146 7.53363 10.2981 6.31715C9.08162 5.10067 9.08162 3.12836 10.2981 1.91187C11.5146 0.695392 13.4869 0.695392 14.7034 1.91187" stroke="#3F3535" stroke-width="1.5" stroke-linecap="round" stroke-linejoin="round"/>
<path d="M6.57017 5.5227C7.3602 6.31273 7.3602 7.59362 6.57017 8.38365C5.78014 9.17368 4.49925 9.17368 3.70922 8.38365C2.91919 7.59362 2.91919 6.31273 3.70922 5.5227C4.49925 4.73267 5.78014 4.73267 6.57017 5.5227" stroke="#3F3535" stroke-width="1.5" stroke-linecap="round" stroke-linejoin="round"/>
<path d="M23.5012 14.9998V13.9038C23.5012 12.5228 22.3822 11.4038 21.0012 11.4038H20.2002" stroke="#3F3535" stroke-width="1.5" stroke-linecap="round" stroke-linejoin="round"/>
<path d="M1.50098 14.9993V13.9033C1.50098 12.5223 2.61998 11.4033 4.00098 11.4033H4.80198" stroke="#3F3535" stroke-width="1.5" stroke-linecap="round" stroke-linejoin="round"/>
<path d="M17.8406 14.9996V13.3986C17.8406 11.4656 16.2736 9.89856 14.3406 9.89856H10.6616C8.72862 9.89856 7.16162 11.4656 7.16162 13.3986V14.9996" stroke="#3F3535" stroke-width="1.5" stroke-linecap="round" stroke-linejoin="round"/>
</svg>
