<svg width="14" height="13" viewBox="0 0 14 13" fill="none" xmlns="http://www.w3.org/2000/svg">
<path fill-rule="evenodd" clip-rule="evenodd" d="M4.51099 11.6502C4.21532 11.8046 3.85763 11.7774 3.58867 11.5801C3.3197 11.3829 3.18626 11.0499 3.24457 10.7215L3.71649 8.01663L1.72965 6.11263C1.4868 5.88103 1.3978 5.53094 1.50056 5.21148C1.60332 4.89201 1.87973 4.65946 2.21207 4.61288L4.97065 4.21855L6.21607 1.73413C6.36374 1.43618 6.66753 1.24768 7.00007 1.24768C7.33261 1.24768 7.63641 1.43618 7.78407 1.73413L9.02949 4.21855L11.7881 4.61288C12.1204 4.65946 12.3968 4.89201 12.4996 5.21148C12.6023 5.53094 12.5133 5.88103 12.2705 6.11263L10.2837 8.01663L10.7556 10.7221C10.8139 11.0505 10.6804 11.3835 10.4115 11.5807C10.1425 11.778 9.78482 11.8051 9.48915 11.6508L7.00007 10.3645L4.51099 11.6502Z" fill="#FFC122" stroke="#FFC122" stroke-linecap="round" stroke-linejoin="round"/>
</svg>
