<svg width="22" height="20" viewBox="0 0 22 20" fill="none" xmlns="http://www.w3.org/2000/svg">
<path fill-rule="evenodd" clip-rule="evenodd" d="M6.73284 18.8291C6.22598 19.0937 5.61279 19.0471 5.15172 18.709C4.69064 18.3709 4.46188 17.8001 4.56184 17.2371L5.37084 12.6001L1.96484 9.33614C1.54852 8.93911 1.39594 8.33895 1.5721 7.7913C1.74826 7.24364 2.22212 6.84499 2.79184 6.76514L7.52084 6.08913L9.65584 1.83013C9.90898 1.31936 10.4298 0.996216 10.9998 0.996216C11.5699 0.996216 12.0907 1.31936 12.3438 1.83013L14.4788 6.08913L19.2078 6.76514C19.7776 6.84499 20.2514 7.24364 20.4276 7.7913C20.6037 8.33895 20.4512 8.93911 20.0348 9.33614L16.6288 12.6001L17.4378 17.2381C17.5378 17.8011 17.309 18.3719 16.848 18.71C16.3869 19.0481 15.7737 19.0947 15.2668 18.8301L10.9998 16.6251L6.73284 18.8291Z" stroke="#FFC122" stroke-width="1.5" stroke-linecap="round" stroke-linejoin="round"/>
</svg>
